<svg width="30" height="30" viewBox="0 0 30 30" fill="none" xmlns="http://www.w3.org/2000/svg">
    <g id="dribbble" clip-path="url(#clip0_12_33)">
        <path id="Vector"
            d="M30 15C30 12.28 29.33 9.77001 27.99 7.47C26.65 5.16999 24.83 3.35001 22.53 2.01C20.23 0.66999 17.72 0 15 0C12.28 0 9.76998 0.66999 7.47 2.01C5.16999 3.35001 3.34998 5.16999 2.01 7.47C0.669991 9.77001 6.70552e-07 12.28 6.70552e-07 15C6.70552e-07 17.72 0.669991 20.23 2.01 22.53C3.34998 24.83 5.16999 26.65 7.47 27.99C9.76998 29.33 12.28 30 15 30C17.72 30 20.23 29.33 22.53 27.99C24.83 26.65 26.65 24.83 27.99 22.53C29.33 20.23 30 17.72 30 15ZM27.51 15C27.51 18.12 26.46 20.87 24.36 23.25C23.4 21.37 21.88 19.58 19.8 17.88C17.72 16.18 15.69 15.11 13.71 14.67C14.01 13.97 14.3 13.34 14.58 12.78C18.02 13.88 21.74 14.43 25.74 14.43C26.52 14.43 27.1 14.42 27.48 14.4C27.48 14.48 27.485 14.58 27.495 14.7C27.505 14.82 27.51 14.92 27.51 15ZM27.12 11.91C26.68 11.95 26.03 11.97 25.17 11.97C21.83 11.97 18.66 11.52 15.66 10.62C17.18 7.92 18.85 5.67 20.67 3.87C22.25 4.67001 23.605 5.78001 24.735 7.2C25.865 8.61999 26.66 10.19 27.12 11.91ZM22.65 24.87C20.39 26.63 17.84 27.51 15 27.51C13.52 27.51 12.05 27.23 10.59 26.67C10.99 23.25 11.77 19.94 12.93 16.74C14.77 17.14 16.625 18.15 18.495 19.77C20.365 21.39 21.75 23.09 22.65 24.87ZM18.06 2.91C16.3 4.73001 14.67 6.99999 13.17 9.72C10.45 8.58 8.4 7.13001 7.02 5.37C9.33999 3.45 12 2.49 15 2.49C16.02 2.49 17.04 2.63001 18.06 2.91ZM12.09 11.85C11.79 12.49 11.45 13.3 11.07 14.28C9.58998 14.14 7.98 14.07 6.24 14.07C4.99998 14.07 3.76998 14.1 2.55 14.16C2.70999 11.44 3.69 9.02001 5.49 6.9C6.78999 8.84001 8.98998 10.49 12.09 11.85ZM10.32 16.38C9.3 19.34 8.61 22.38 8.25 25.5C6.66999 24.48 5.37999 23.17 4.38 21.57C3.37998 19.97 2.77998 18.24 2.58 16.38C4.03998 16.28 5.37 16.23 6.57 16.23C7.66998 16.23 8.91999 16.28 10.32 16.38Z"
            fill="#181616" />
    </g>
    <defs>
        <clipPath id="clip0_12_33">
            <rect width="30" height="30" fill="white" transform="matrix(-1 0 0 1 30 0)" />
        </clipPath>
    </defs>
</svg>