<svg width="30" height="30" viewBox="0 0 30 30" fill="none" xmlns="http://www.w3.org/2000/svg">
    <g id="github">
        <g id="Group">
            <path id="Vector" fill-rule="evenodd" clip-rule="evenodd"
                d="M15 1.19601C7.18429 1.19601 0.846558 7.53234 0.846558 15.3495C0.846558 21.603 4.90195 26.9081 10.5255 28.7798C11.2327 28.9111 11.4923 28.4728 11.4923 28.099C11.4923 27.7615 11.4792 26.6466 11.4731 25.4639C7.53562 26.3201 6.70476 23.794 6.70476 23.794C6.06093 22.158 5.13328 21.723 5.13328 21.723C3.8489 20.8446 5.23007 20.8629 5.23007 20.8629C6.65109 20.9625 7.39968 22.3214 7.39968 22.3214C8.66203 24.4847 10.7107 23.8594 11.5184 23.498C11.6454 22.5832 12.0122 21.9586 12.4169 21.6052C9.27328 21.2477 5.96835 20.0339 5.96835 14.6107C5.96835 13.0655 6.52148 11.8029 7.42687 10.8115C7.27968 10.4552 6.79523 9.0157 7.56375 7.06617C7.56375 7.06617 8.75203 6.68578 11.4567 8.51695C12.5859 8.20312 13.7969 8.04539 15 8.04C16.2023 8.04539 17.4141 8.20266 18.5454 8.51648C21.2468 6.68531 22.4337 7.0657 22.4337 7.0657C23.2041 9.015 22.7196 10.4548 22.5727 10.811C23.4802 11.8024 24.0293 13.065 24.0293 14.6102C24.0293 20.0463 20.7183 21.243 17.5666 21.5937C18.0745 22.0329 18.5269 22.8945 18.5269 24.2147C18.5269 26.1084 18.5105 27.6326 18.5105 28.0988C18.5105 28.4754 18.7655 28.9167 19.4827 28.7777C25.103 26.9041 29.1537 21.6007 29.1537 15.3495C29.1534 7.53281 22.8164 1.19601 15 1.19601Z"
                fill="#181616" />
            <path id="Vector_2"
                d="M6.20718 21.517C6.17601 21.5873 6.06539 21.6084 5.9646 21.5604C5.86148 21.5144 5.80406 21.4186 5.83734 21.348C5.86781 21.2754 5.97867 21.2555 6.08109 21.304C6.18421 21.3501 6.24281 21.4469 6.20695 21.5173L6.20718 21.517ZM6.78046 22.1566C6.7132 22.2192 6.58124 22.1901 6.49171 22.091C6.3989 21.9926 6.38156 21.8606 6.45023 21.7971C6.52007 21.7348 6.64804 21.7643 6.74085 21.8627C6.8332 21.9626 6.85148 22.0934 6.7807 22.1569L6.78046 22.1566ZM7.33874 22.9716C7.25203 23.032 7.10999 22.9755 7.02234 22.8497C6.93562 22.7236 6.93562 22.5724 7.02468 22.5122C7.1121 22.4517 7.25203 22.5063 7.34109 22.631C7.42734 22.7587 7.42734 22.9101 7.33874 22.9716ZM8.10304 23.7593C8.0257 23.8448 7.86023 23.8219 7.73929 23.7054C7.61578 23.5912 7.58132 23.4288 7.6589 23.3435C7.73765 23.2577 7.90382 23.2816 8.02546 23.3974C8.14898 23.5113 8.18624 23.674 8.10351 23.7591L8.10304 23.7593ZM9.15773 24.2166C9.12328 24.3274 8.96437 24.3778 8.80382 24.3305C8.64374 24.2819 8.53898 24.1523 8.57179 24.0403C8.6046 23.9285 8.76468 23.8762 8.92617 23.9266C9.08624 23.9749 9.19101 24.1038 9.15773 24.2166ZM10.3162 24.3012C10.3202 24.4179 10.1843 24.5144 10.0162 24.5168C9.84679 24.5208 9.70968 24.4261 9.70804 24.3112C9.70804 24.1933 9.84117 24.098 10.0104 24.0947C10.1784 24.0916 10.3165 24.1854 10.3165 24.3009L10.3162 24.3012ZM11.3939 24.1179C11.4141 24.2316 11.2971 24.3485 11.13 24.3797C10.9659 24.4101 10.8136 24.3394 10.7925 24.2266C10.7723 24.1099 10.8914 23.993 11.0555 23.9627C11.2228 23.9339 11.3728 24.0023 11.3939 24.1179Z"
                fill="#181616" />
        </g>
    </g>
</svg>
