<svg width="34" height="34" viewBox="0 0 34 34" fill="none" xmlns="http://www.w3.org/2000/svg">
    <g id="linkedin">
        <path id="Vector"
            d="M16.9999 2.63489C9.08457 2.63489 2.64481 9.07465 2.64481 16.9902C2.64481 24.906 9.08457 31.3455 16.9999 31.3455C24.9154 31.3455 31.3554 24.906 31.3554 16.9902C31.3552 9.07465 24.9152 2.63489 16.9999 2.63489ZM16.9999 29.9297C9.86517 29.9297 4.06066 24.1251 4.06066 16.9902C4.06066 9.85549 9.86517 4.05074 16.9999 4.05074C24.1346 4.05074 29.9396 9.85549 29.9396 16.9902C29.9393 24.1251 24.1346 29.9297 16.9999 29.9297Z"
            fill="black" />
        <path id="Vector_2" d="M9.70872 13.9485H13.0308V22.6168H9.70872V13.9485Z" fill="black" />
        <path id="Vector_3"
            d="M11.3367 12.5657C12.2653 12.5657 13.018 11.8789 13.018 11.0318C13.018 10.1847 12.2653 9.49799 11.3367 9.49799C10.4081 9.49799 9.6554 10.1847 9.6554 11.0318C9.6554 11.8789 10.4081 12.5657 11.3367 12.5657Z"
            fill="black" />
        <path id="Vector_4"
            d="M21.3812 13.7526C20.7009 13.7526 20.1244 13.8765 19.6506 14.124C19.1772 14.3718 18.7095 14.7838 18.2468 15.3606V13.9485H15.1531V22.6168H18.4752V18.454C18.4752 17.6649 18.6005 17.1183 18.8509 16.8135C19.1012 16.5088 19.4274 16.3564 19.8302 16.3564C20.1947 16.3564 20.4777 16.4694 20.6792 16.6952C20.8807 16.9211 20.981 17.3059 20.981 17.8503V22.6168H24.3196V17.1075C24.3196 15.9647 24.0595 15.1199 23.5397 14.5729C23.0205 14.0259 22.3006 13.7526 21.3812 13.7526Z"
            fill="black" />
    </g>
</svg>
