<svg width="30" height="30" viewBox="0 0 30 30" fill="none" xmlns="http://www.w3.org/2000/svg">
    <g id="send" clip-path="url(#clip0_17_133)">
        <g id="Clip path group">
            <mask id="mask0_17_133" style="mask-type:luminance" maskUnits="userSpaceOnUse" x="0"
                y="0" width="30" height="30">
                <g id="a">
                    <path id="Vector" d="M30 0H0V30H30V0Z" fill="white" />
                </g>
            </mask>
            <g mask="url(#mask0_17_133)">
                <g id="Group">
                    <path id="Vector_2"
                        d="M3.85125 17.0335L12.6023 15.2832C13.3837 15.1271 13.3837 14.873 12.6023 14.7169L3.85125 12.9666C3.33 12.8625 2.82234 12.3544 2.71828 11.8336L0.967967 3.08253C0.811404 2.30065 1.27219 1.93737 1.9964 2.27159L28.7006 14.5964C29.183 14.8191 29.183 15.181 28.7006 15.4036L1.9964 27.7285C1.27219 28.0627 0.811404 27.6994 0.967967 26.9175L2.71828 18.1664C2.82234 17.6457 3.33 17.1375 3.85125 17.0335Z"
                        fill="#181616" />
                </g>
            </g>
        </g>
    </g>
    <defs>
        <clipPath id="clip0_17_133">
            <rect width="30" height="30" fill="white" />
        </clipPath>
    </defs>
</svg>